<svg xmlns="http://www.w3.org/2000/svg" version="1.1" xmlns:xlink="http://www.w3.org/1999/xlink" width="1024" height="1024"><svg class="svg-icon" style="width: 1em; height: 1em;vertical-align: middle;fill: currentColor;overflow: hidden;" viewBox="0 0 1024 1024" version="1.1" xmlns="http://www.w3.org/2000/svg"><path d="M133.1 528.8c-7.4 0-13.5 6-13.5 13.5 0 7.4 6 13.5 13.5 13.5h197.5l10.4-26.9H133.1zM440 314.3H77.7c-7.4 0-13.5 6-13.5 13.5 0 7.4 6 13.5 13.5 13.5h352l10.3-27zM390.3 422H105.4c-7.4 0-13.5 6-13.5 13.5 0 7.4 6 13.5 13.5 13.5h274.5l10.4-27z m339 40.4c4.7 0 9-2.4 11.4-6.4 2.5-4 2.7-9 0.5-13.2L672 308c-2.3-4.5-6.9-7.3-12-7.3H553c-5.7 0-10.8 3.6-12.7 9l-46.6 135.2c-1.4 4.1-0.8 8.6 1.7 12.2 2.5 3.6 6.5 5.7 10.9 5.7l222.9-0.4h0.1z m-204-26.4l37.2-108.4h89.3l55.3 107.6-181.8 0.8z m249.6 158.4c-50 0-90.6 40.6-90.6 90.6 0 50 40.6 90.6 90.6 90.6 50 0 90.6-40.6 90.6-90.6 0-50-40.5-90.6-90.6-90.6z m0 149.3c-32.4 0-58.7-26.3-58.7-58.7s26.3-58.7 58.7-58.7c32.4 0 58.7 26.3 58.7 58.7s-26.3 58.7-58.7 58.7zM472.2 522c0 11.4 9.3 20.7 20.7 20.7 11.4 0 20.7-9.3 20.7-20.7 0-11.4-9.3-20.7-20.7-20.7-11.4 0-20.7 9.2-20.7 20.7z m450 11.7c-2.6-1.2-5.1-2.4-7.3-3.6-13.6-7.3-62.8-44.1-76.3-55.6-6-5.1-27.8-29.4-34.4-45.3-4.3-10.4-19.7-37-37.4-67.8-16.6-28.8-33.8-58.5-41.4-74.2-17.5-36.1-34.8-39-55.6-39H510.3c-5.6 0-10.7 3.5-12.6 8.8l-156 416.8c-1.5 4.1-0.9 8.8 1.6 12.4 2.5 3.6 6.6 5.8 11 5.8H643c0.2-9.3 1.5-18.3 3.8-26.9H373.6l145.9-389.9h150.1c14.1 0 19.9 0 31.4 23.8 8 16.6 25.5 46.8 42.3 76 15.9 27.5 32.2 55.8 35.9 64.6 8.8 21.3 33.8 48.8 41.9 55.6 15.1 12.8 65.8 46.1 81 54.3 2.7 1.5 5.7 7.4 8.7 8.8 14.7 6.8 21.1 10.9 21.3 20.9v62.4c0 15.6-7.9 23.6-23.6 23.6h-15.1c2.2 8.7 3.6 17.6 3.8 26.9h11.3c30.7 0 50.5-19.8 50.5-50.5V579c-0.4-28.3-22.3-38.5-36.8-45.3z"></path></svg><style>@media (prefers-color-scheme: light) { :root { filter: none; } }
@media (prefers-color-scheme: dark) { :root { filter: none; } }
</style></svg>